<?xml version="1.0" encoding="utf-8"?>
<!-- Generator: Adobe Illustrator 22.0.0, SVG Export Plug-In . SVG Version: 6.00 Build 0)  -->
<svg version="1.1" id="Layer_1" xmlns="http://www.w3.org/2000/svg" xmlns:xlink="http://www.w3.org/1999/xlink" x="0px" y="0px"
	 viewBox="0 0 1280 1024" style="enable-background:new 0 0 1280 1024;" xml:space="preserve">
<style type="text/css">
	.st0{fill:url(#SVGID_1_);}
	.st1{fill:url(#SVGID_2_);}
	.st2{fill:url(#SVGID_3_);}
	.st3{fill:url(#SVGID_4_);}
	.st4{fill:url(#SVGID_5_);}
	.st5{fill:url(#SVGID_6_);}
	.st6{fill:url(#SVGID_7_);}
	.st7{fill:url(#SVGID_8_);}
	.st8{fill:url(#SVGID_9_);}
</style>
<g id="test1">
	
		<radialGradient id="SVGID_1_" cx="2436.2964" cy="-3431.5161" r="31.6256" gradientTransform="matrix(0.7448 2.180000e-02 0.1014 -0.5266 -1384.4115 -1658.0068)" gradientUnits="userSpaceOnUse">
		<stop  offset="5.618000e-03" style="stop-color:#FFFFFF"/>
		<stop  offset="0.2547" style="stop-color:#FBFEFF"/>
		<stop  offset="0.512" style="stop-color:#EEFAFF"/>
		<stop  offset="0.7721" style="stop-color:#DAF3FF"/>
		<stop  offset="0.978" style="stop-color:#C4ECFF"/>
	</radialGradient>
	<path class="st0" d="M87,192.6c-10.6-0.3-20.3,4.8-21.5,11.3c-1.3,6.6,6.3,12.1,16.9,12.4c10.6,0.3,20.3-4.7,21.5-11.3
		C105.2,198.5,97.6,192.9,87,192.6z"/>
	
		<radialGradient id="SVGID_2_" cx="3703.5471" cy="-2081.3877" r="26.5117" gradientTransform="matrix(0.6975 0.2619 0.2666 -0.4653 -1981.364 -1739.1222)" gradientUnits="userSpaceOnUse">
		<stop  offset="5.618000e-03" style="stop-color:#FFFFFF"/>
		<stop  offset="0.2547" style="stop-color:#FBFEFF"/>
		<stop  offset="0.512" style="stop-color:#EEFAFF"/>
		<stop  offset="0.7721" style="stop-color:#DAF3FF"/>
		<stop  offset="0.978" style="stop-color:#C4ECFF"/>
	</radialGradient>
	<path class="st1" d="M53.3,193.1c-8.4-3.1-17.3-1.7-20.2,3.1c-2.8,4.8,1.7,11.3,10.1,14.5c8.4,3.1,17.3,1.7,20.2-3.1
		C66.2,202.6,61.7,196.2,53.3,193.1z"/>
	
		<radialGradient id="SVGID_3_" cx="2553.1096" cy="1077.0149" r="67.0553" gradientTransform="matrix(0.9274 0.1695 0.1798 -0.9837 -2501.4319 773.6846)" gradientUnits="userSpaceOnUse">
		<stop  offset="5.618000e-03" style="stop-color:#FFFFFF"/>
		<stop  offset="0.2547" style="stop-color:#FBFEFF"/>
		<stop  offset="0.512" style="stop-color:#EEFAFF"/>
		<stop  offset="0.7721" style="stop-color:#DAF3FF"/>
		<stop  offset="0.978" style="stop-color:#C4ECFF"/>
	</radialGradient>
	<path class="st2" d="M74.7,110.3c-28-5.1-54.6,11.7-59.4,37.7c-4.7,26,14.1,51.1,42.2,56.3s54.6-11.7,59.4-37.7
		S102.7,115.4,74.7,110.3z"/>
	
		<radialGradient id="SVGID_4_" cx="2156.6064" cy="1019.5674" r="15.1684" gradientTransform="matrix(0.89 7.540000e-02 8.440000e-02 -0.9964 -1960.1272 933.7661)" gradientUnits="userSpaceOnUse">
		<stop  offset="5.618000e-03" style="stop-color:#FFFFFF"/>
		<stop  offset="0.2547" style="stop-color:#FBFEFF"/>
		<stop  offset="0.512" style="stop-color:#EEFAFF"/>
		<stop  offset="0.7721" style="stop-color:#DAF3FF"/>
		<stop  offset="0.978" style="stop-color:#C4ECFF"/>
	</radialGradient>
	<path class="st3" d="M47.7,71.9c-6.1-0.5-11.4,3.9-11.9,9.8c-0.5,5.9,4,11.2,10.1,11.7c6.1,0.5,11.4-3.9,11.9-9.8
		C58.4,77.6,53.8,72.4,47.7,71.9z"/>
	
		<radialGradient id="SVGID_5_" cx="2186.1838" cy="1000.0588" r="50.32" gradientTransform="matrix(0.89 7.540000e-02 8.440000e-02 -0.9964 -1960.1272 933.7661)" gradientUnits="userSpaceOnUse">
		<stop  offset="5.618000e-03" style="stop-color:#FFFFFF"/>
		<stop  offset="0.2547" style="stop-color:#FBFEFF"/>
		<stop  offset="0.512" style="stop-color:#EEFAFF"/>
		<stop  offset="0.7721" style="stop-color:#DAF3FF"/>
		<stop  offset="0.978" style="stop-color:#C4ECFF"/>
	</radialGradient>
	<path class="st4" d="M78,73.7c-20.2-1.7-37.9,12.9-39.6,32.7c-1.7,19.8,13.4,37.1,33.5,38.8c20.2,1.7,37.9-12.9,39.6-32.7
		C113.2,92.7,98.2,75.3,78,73.7z"/>
	
		<radialGradient id="SVGID_6_" cx="2229.334" cy="1003.6315" r="19.2736" gradientTransform="matrix(0.89 7.540000e-02 8.440000e-02 -0.9964 -1960.1272 933.7661)" gradientUnits="userSpaceOnUse">
		<stop  offset="5.618000e-03" style="stop-color:#FFFFFF"/>
		<stop  offset="0.2547" style="stop-color:#FBFEFF"/>
		<stop  offset="0.512" style="stop-color:#EEFAFF"/>
		<stop  offset="0.7721" style="stop-color:#DAF3FF"/>
		<stop  offset="0.978" style="stop-color:#C4ECFF"/>
	</radialGradient>
	<path class="st5" d="M111.7,90.9c-7.7-0.6-14.5,5-15.1,12.5s5.1,14.2,12.8,14.9c7.7,0.6,14.5-5,15.1-12.5
		C125.2,98.3,119.5,91.6,111.7,90.9z"/>
	
		<radialGradient id="SVGID_7_" cx="2121.656" cy="1123.8967" r="26.6322" gradientTransform="matrix(0.8798 9.590000e-02 6.460000e-02 -1.0191 -1855.6342 1006.7106)" gradientUnits="userSpaceOnUse">
		<stop  offset="5.618000e-03" style="stop-color:#FFFFFF"/>
		<stop  offset="0.2547" style="stop-color:#FBFEFF"/>
		<stop  offset="0.512" style="stop-color:#EEFAFF"/>
		<stop  offset="0.7721" style="stop-color:#DAF3FF"/>
		<stop  offset="0.978" style="stop-color:#C4ECFF"/>
	</radialGradient>
	<path class="st6" d="M87.5,49.5C77,48.3,67.8,56,67.2,66.8C66.5,77.4,74.5,87,85.1,88.2c10.5,1.2,19.7-6.6,20.3-17.3
		C106.1,60.2,98.1,50.6,87.5,49.5z"/>
	<g>
		<g>
			
				<linearGradient id="SVGID_8_" gradientUnits="userSpaceOnUse" x1="3696.4883" y1="1719.1108" x2="3687.6289" y2="1722.0602" gradientTransform="matrix(-0.4395 0.8982 -0.8982 -0.4395 3238.6626 -2496.8667)">
				<stop  offset="0" style="stop-color:#FFA200"/>
				<stop  offset="0.2747" style="stop-color:#FFC200"/>
				<stop  offset="0.6758" style="stop-color:#FFCC00"/>
				<stop  offset="1" style="stop-color:#FF9900"/>
			</linearGradient>
			<path class="st7" d="M61.3,57.8c0.1,0.1,0.8,0.7,1.2,1c4.3,3.2,8.7,6.3,13,9.5c0.6,0.4,1.3,0.5,1.9,0.4c0.9-0.2,1.5-0.6,1.9-1.2
				c0.4-0.6,0.7-1.3,1-2c0.2-0.7,0.2-1.4-0.2-2.2c-0.3-0.5-0.8-1.1-1.5-1.3c-5.2-1.5-10.4-2.9-15.5-4.4c-0.5-0.1-1.2-0.3-1.5-0.3
				C61.3,57.2,61.1,57.5,61.3,57.8z"/>
		</g>
		
			<linearGradient id="SVGID_9_" gradientUnits="userSpaceOnUse" x1="-1551.9868" y1="1080.1101" x2="-1571.1095" y2="1080.1101" gradientTransform="matrix(-0.9911 -0.1333 0.1333 -0.9911 -1612.5344 936.6378)">
			<stop  offset="0" style="stop-color:#ECF9FF"/>
			<stop  offset="0.4725" style="stop-color:#B3E6FF"/>
			<stop  offset="1" style="stop-color:#57AFDB"/>
		</linearGradient>
		<path class="st8" d="M89.2,71.3c-4.8,9.9-14.9,9.4-19.4,0.9L69.8,72c7.9,4.4,16.5,4,19.2-0.8L89.2,71.3z"/>
		<path d="M82.8,61.9c-0.1,0.2,0.2,0.3,0.2,0.6c0,0.2-0.2,0.4-0.1,0.6c0.1,0.2,0.2,0.3,0.3,0.5c0.1,0.2,0.2,0.3,0.3,0.5
			c0.2,0.1,0.3,0.2,0.5,0.3c0.2,0.1,0.4,0,0.6,0.1c0.2,0.1,0.3-0.1,0.5-0.1c0.2,0,0.4,0.2,0.6,0.2c0.2-0.1,0.2-0.4,0.4-0.5
			c0.2-0.1,0.6,0.1,0.7-0.1c0.1-0.2,0.2-0.4,0.3-0.6c0.1-0.2,0-0.4,0.1-0.6c0.1-0.2-0.1-0.3-0.1-0.6c0-0.2,0.2-0.5,0.2-0.6
			c-0.1-0.2-0.2-0.3-0.3-0.5c-0.1-0.2-0.2-0.3-0.3-0.5c-0.2-0.1-0.3-0.2-0.5-0.2c-0.2-0.1-0.4,0-0.6-0.1c-0.2-0.1-0.3,0-0.5,0
			c-0.2,0-0.3,0-0.5,0.1c-0.2,0.1-0.4,0-0.6,0.1c-0.2,0.1-0.2,0.3-0.3,0.5c-0.1,0.2-0.4,0.2-0.5,0.4C82.8,61.5,82.8,61.7,82.8,61.9z
			"/>
		<path d="M77.5,58.3c0,0.2,0.2,0.3,0.2,0.5c0,0.2-0.2,0.3-0.1,0.5c0.1,0.2,0.1,0.3,0.2,0.4s0.2,0.3,0.3,0.4
			c0.1,0.1,0.3,0.2,0.4,0.2s0.3,0,0.5,0c0.2,0,0.3-0.1,0.5-0.1c0.2,0,0.3,0.2,0.5,0.1c0.2-0.1,0.2-0.3,0.3-0.4
			c0.1-0.1,0.5,0,0.6-0.1s0.2-0.3,0.2-0.5c0.1-0.1,0-0.3,0.1-0.5c0-0.2-0.1-0.3-0.1-0.5c0-0.2,0.2-0.3,0.1-0.5
			c-0.1-0.2-0.2-0.3-0.3-0.4s-0.2-0.3-0.3-0.4s-0.3-0.1-0.5-0.2c-0.1-0.1-0.3,0-0.5-0.1c-0.2,0-0.3,0-0.5,0c-0.2,0-0.3,0-0.5,0.1
			s-0.3,0-0.5,0.1c-0.1,0.1-0.2,0.3-0.3,0.4s-0.3,0.2-0.4,0.3C77.6,57.9,77.6,58.1,77.5,58.3z"/>
	</g>
</g>
</svg>
