	<svg version="1.0" xmlns="http://www.w3.org/2000/svg"
 width="300.000000pt" height="253.000000pt" viewBox="0 0 300.000000 253.000000"
 preserveAspectRatio="xMidYMid meet">
<metadata>
Created by potrace 1.10, written by Peter Selinger 2001-2011
</metadata>
<defs>
<g id="couleursvg" transform="translate(0.000000,253.000000) scale(0.100000,-0.100000)"
 stroke="none">
<path d="M635 2250 c-56 -12 -187 -64 -240 -94 -93 -55 -104 -106 -59 -262 30
-104 53 -159 97 -231 29 -49 57 -73 43 -37 -3 8 -2 12 4 9 6 -3 10 -1 10 5 0
7 8 9 19 5 19 -6 19 -6 7 142 l-3 42 40 -34 c42 -36 57 -43 57 -25 0 6 7 10
15 10 9 0 18 7 21 15 4 8 11 15 16 15 14 0 58 36 52 42 -2 3 2 11 11 18 8 7
15 19 15 27 0 10 7 14 18 11 12 -3 24 2 31 13 7 12 7 19 1 19 -20 0 -9 19 13
22 12 2 20 7 17 11 -3 5 3 13 13 18 9 6 17 19 17 29 0 11 6 20 14 20 8 0 18
10 22 23 4 12 15 29 25 38 11 9 22 30 25 48 5 24 10 29 19 21 9 -8 14 -6 18 4
4 11 -16 22 -77 45 -90 32 -197 45 -261 31z m90 -30 c-11 -5 -30 -9 -42 -9
-13 -1 -23 -6 -23 -12 0 -5 -4 -8 -8 -5 -4 2 -14 1 -22 -5 -11 -6 -8 -9 13 -9
15 0 27 5 27 12 0 6 3 9 6 5 4 -3 28 2 55 12 48 19 50 18 119 -2 38 -11 70
-24 70 -29 0 -14 -29 -67 -48 -87 -9 -10 -24 -28 -32 -41 -24 -38 -78 -89 -86
-81 -4 3 -4 -2 -1 -12 4 -12 -2 -25 -18 -39 -14 -12 -25 -28 -25 -35 0 -7 -4
-13 -8 -13 -8 0 -23 -11 -82 -61 l-24 -21 -21 24 c-14 17 -31 25 -51 24 -29
-1 -29 -2 -31 -66 -3 -79 -10 -113 -24 -108 -16 5 -106 208 -124 282 -21 85
-14 125 27 165 30 29 103 61 140 61 10 0 17 5 16 11 -4 17 100 47 162 47 39 1
49 -2 35 -8z"/>
<path d="M548 2173 c7 -3 16 -2 19 1 4 3 -2 6 -13 5 -11 0 -14 -3 -6 -6z"/>
<path d="M665 2140 c3 -5 8 -10 11 -10 2 0 4 5 4 10 0 6 -5 10 -11 10 -5 0 -7
-4 -4 -10z"/>
<path d="M631 2104 c0 -11 3 -14 6 -6 3 7 2 16 -1 19 -3 4 -6 -2 -5 -13z"/>
<path d="M591 2094 c0 -11 3 -14 6 -6 3 7 2 16 -1 19 -3 4 -6 -2 -5 -13z"/>
<path d="M1014 2251 c4 -5 1 -11 -6 -13 -9 -3 -9 -6 0 -12 7 -4 12 -2 12 4 0
26 99 -21 100 -47 0 -7 4 -13 10 -13 5 0 12 -11 16 -25 7 -27 21 -34 21 -10 0
8 -4 15 -9 15 -4 0 -8 7 -8 15 0 8 -4 15 -10 15 -5 0 -10 7 -10 15 0 8 -4 15
-10 15 -5 0 -19 9 -30 20 -11 11 -26 17 -34 14 -8 -3 -17 -1 -21 5 -3 6 -11
11 -16 11 -6 0 -8 -4 -5 -9z"/>
<path d="M1035 2173 c11 -3 27 -10 35 -17 13 -10 13 -9 1 7 -7 9 -23 16 -35
16 -20 -1 -20 -2 -1 -6z"/>
<path d="M1353 2158 c-42 -46 -136 -261 -147 -334 -4 -25 4 -9 24 46 46 129
121 273 150 287 36 18 37 7 2 -22 -39 -33 -82 -120 -132 -266 -21 -62 -43
-115 -48 -117 -11 -3 -14 9 -33 135 -9 58 -16 80 -25 76 -7 -2 -10 -12 -7 -20
4 -10 2 -14 -4 -10 -5 3 -19 -11 -31 -33 l-20 -39 24 -108 c29 -130 41 -161
66 -174 33 -18 44 -4 57 73 17 94 56 245 76 289 13 32 14 27 9 -81 -7 -126 7
-261 31 -297 16 -24 55 -39 80 -29 14 5 14 9 -2 38 -34 65 -28 503 8 570 22
40 -44 53 -78 16z m41 -50 c-7 -24 -12 -66 -13 -115 l-1 -32 -30 17 c-16 9
-30 21 -30 26 0 9 72 126 78 126 2 0 0 -10 -4 -22z m-47 -235 c-8 -93 1 -231
19 -277 5 -14 3 -17 -7 -14 -7 2 -18 24 -22 49 -11 55 -13 311 -3 327 18 29
21 6 13 -85z m-201 -9 c3 -21 8 -42 11 -46 2 -5 -1 -8 -6 -8 -6 0 -11 11 -11
24 0 14 -4 28 -10 31 -16 10 -12 -25 16 -134 23 -91 25 -126 9 -109 -3 3 -17
54 -30 114 -24 105 -24 110 -8 141 9 18 18 31 20 30 1 -2 5 -21 9 -43z m18
-80 c3 -8 2 -12 -4 -9 -6 3 -10 10 -10 16 0 14 7 11 14 -7z m43 -54 c6 0 7
-17 3 -45 -8 -55 -17 -66 -25 -31 -3 14 -7 37 -10 50 -3 13 -8 32 -12 43 -6
17 -6 17 14 1 11 -10 24 -18 30 -18z"/>
<path d="M1188 2104 c2 -14 -3 -43 -13 -65 -10 -21 -15 -42 -12 -46 4 -3 7 1
7 10 0 10 4 17 8 17 12 0 27 52 24 83 -2 15 -7 27 -11 27 -5 0 -6 -11 -3 -26z"/>
<path d="M1110 2110 c0 -5 5 -10 11 -10 5 0 7 5 4 10 -3 6 -8 10 -11 10 -2 0
-4 -4 -4 -10z"/>
<path d="M1100 1988 c-12 -22 -12 -22 6 -6 10 10 15 20 12 24 -4 3 -12 -5 -18
-18z"/>
<path d="M840 1939 c0 -5 5 -7 10 -4 6 3 10 8 10 11 0 2 -4 4 -10 4 -5 0 -10
-5 -10 -11z"/>
<path d="M1805 1914 c-9 -9 -15 -29 -13 -48 3 -45 -31 -132 -70 -177 -45 -53
-85 -73 -134 -66 -24 3 -36 1 -32 -5 10 -16 103 -3 132 19 57 42 108 141 121
232 3 26 12 46 21 49 13 4 13 3 2 -11 -8 -9 -11 -25 -7 -35 7 -25 -57 -162
-98 -209 -39 -44 -76 -63 -124 -63 -49 0 -57 7 -60 53 -3 31 0 37 17 37 34 0
108 40 140 76 21 24 30 45 30 69 0 91 -121 99 -204 12 -49 -51 -66 -93 -66
-158 0 -45 4 -55 34 -85 31 -31 40 -34 90 -34 102 0 169 54 223 177 15 35 31
63 35 63 4 0 12 -9 18 -20 8 -15 5 -33 -10 -77 -11 -31 -20 -68 -20 -81 0 -36
43 -72 86 -72 76 0 141 54 190 155 21 46 28 54 40 44 20 -16 17 -40 -11 -101
-32 -68 -31 -83 4 -119 36 -35 88 -39 143 -9 l37 20 12 -21 c6 -11 26 -27 45
-35 31 -13 39 -13 65 0 36 18 37 8 6 -54 -18 -37 -28 -46 -57 -51 -31 -6 -32
-7 -7 -8 44 -2 64 15 82 69 9 27 24 54 33 60 9 5 13 10 9 10 -9 0 4 14 37 40
19 15 19 14 3 -16 -9 -17 -22 -34 -29 -37 -7 -2 -22 -28 -32 -56 -29 -83 -26
-81 -199 -75 -138 5 -399 -6 -487 -20 -35 -6 -35 -6 5 8 24 8 32 14 20 15 -22
1 -115 -30 -115 -38 0 -10 640 -11 681 -2 21 5 40 6 43 4 6 -6 -39 -110 -56
-130 -14 -17 -24 -8 -11 9 14 18 44 98 37 98 -8 0 -66 -131 -60 -137 2 -2 23
-1 47 4 41 8 43 10 76 89 l33 80 54 17 c74 22 158 75 154 96 -6 29 -51 24
-114 -14 -32 -21 -48 -34 -34 -30 14 4 41 18 61 31 38 26 54 31 43 13 -3 -6
-36 -25 -73 -43 -90 -44 -118 -63 -125 -89 -5 -18 -8 -20 -16 -7 -7 11 -5 18
5 26 8 6 19 23 25 39 8 21 14 25 22 17 13 -13 50 64 84 173 16 49 16 58 4 66
-32 20 -61 10 -76 -26 -8 -19 -33 -49 -56 -65 -46 -34 -40 -40 9 -10 18 10 44
37 58 60 14 22 33 40 43 39 14 0 13 -3 -5 -16 -13 -8 -23 -24 -23 -34 0 -26
-78 -81 -110 -77 -23 3 -25 7 -24 50 0 33 8 58 28 88 26 40 27 43 10 61 -9 10
-25 19 -35 19 -22 0 -64 -50 -78 -93 -12 -35 -49 -69 -89 -82 -13 -4 -22 -9
-19 -11 8 -8 61 17 85 39 13 12 31 40 41 62 22 48 55 80 72 69 9 -5 6 -10 -10
-16 -14 -5 -31 -27 -43 -57 -28 -65 -118 -125 -162 -108 -16 6 -14 18 20 107
22 57 14 92 -31 137 -23 23 -33 42 -32 59 1 16 -5 31 -16 38 -15 9 -22 7 -38
-13 -10 -13 -18 -35 -17 -50 1 -14 -13 -55 -31 -90 -18 -34 -30 -65 -28 -67 8
-9 67 114 73 152 3 21 13 46 21 54 14 13 15 13 8 -5 -4 -11 -11 -33 -15 -50
-26 -106 -121 -223 -180 -221 -21 1 -24 41 -6 87 27 68 22 97 -29 146 -34 32
-45 50 -45 73 0 23 -4 30 -19 30 -11 0 -27 -7 -36 -16z m-150 -34 c-56 -6 -80
-18 -111 -52 -32 -34 -57 -116 -50 -160 7 -42 -8 -52 -18 -12 -14 54 22 152
72 197 30 27 87 44 125 38 29 -5 28 -6 -18 -11z m10 -30 c4 -6 11 -8 16 -5 17
11 9 -32 -12 -59 -30 -38 -129 -85 -129 -61 0 19 44 87 70 109 34 28 45 32 55
16z m235 -77 c0 -16 -8 -50 -19 -78 -10 -27 -16 -55 -14 -62 2 -6 -1 -14 -6
-18 -16 -9 -13 50 4 92 8 19 15 48 15 64 0 16 5 29 10 29 6 0 10 -12 10 -27z
m270 -117 c-11 -26 -20 -56 -20 -66 0 -10 -5 -22 -11 -26 -8 -5 -10 4 -7 27 4
29 12 54 46 149 4 10 7 6 9 -11 2 -14 -5 -47 -17 -73z m-640 49 c0 -8 -3 -16
-7 -18 -5 -3 -8 5 -8 18 0 13 3 21 8 18 4 -2 7 -10 7 -18z m665 -64 c3 -5 1
-12 -5 -16 -5 -3 -10 1 -10 9 0 18 6 21 15 7z m190 -25 c-10 -14 -15 -26 -11
-26 3 0 1 -11 -4 -25 -6 -16 -6 -25 0 -25 6 0 10 -5 10 -12 0 -6 -11 -1 -24
12 -22 20 -23 24 -10 37 8 8 21 28 30 45 8 16 18 28 21 25 2 -3 -3 -17 -12
-31z m-485 -16 c0 -5 -4 -10 -10 -10 -5 0 -10 5 -10 10 0 6 5 10 10 10 6 0 10
-4 10 -10z m368 -237 c-38 -2 -98 -2 -135 0 -38 2 -7 3 67 3 74 0 105 -1 68
-3z"/>
<path d="M1654 1817 c-3 -9 -24 -30 -47 -47 -44 -33 -40 -42 6 -11 32 21 62
59 53 68 -3 3 -8 -1 -12 -10z"/>
<path d="M1014 1876 c-10 -8 -16 -17 -13 -20 3 -3 14 3 24 14 21 23 17 26 -11
6z"/>
<path d="M1045 1849 c-4 -6 -5 -12 -2 -15 2 -3 7 2 10 11 7 17 1 20 -8 4z"/>
<path d="M1007 1813 c-4 -3 -7 -17 -7 -30 0 -13 -7 -26 -15 -30 -9 -3 -22 -20
-29 -38 -16 -37 -41 -213 -32 -222 3 -4 1 -12 -5 -19 -9 -11 -7 -15 6 -21 36
-13 56 41 80 213 8 60 17 119 20 132 5 21 -4 29 -18 15z m-43 -199 c-9 -49
-21 -96 -26 -104 -6 -10 -7 -1 -3 25 4 22 11 66 15 97 8 55 18 84 26 75 2 -2
-3 -44 -12 -93z"/>
<path d="M890 1730 c0 -5 7 -7 15 -4 8 4 15 8 15 10 0 2 -7 4 -15 4 -8 0 -15
-4 -15 -10z"/>
<path d="M583 1719 c9 -5 17 -16 17 -23 0 -7 7 -13 15 -13 8 0 15 2 15 5 0 7
-45 41 -55 41 -5 0 -2 -4 8 -10z"/>
<path d="M820 1726 c0 -2 8 -10 18 -17 15 -13 16 -12 3 4 -13 16 -21 21 -21
13z"/>
<path d="M865 1720 c-3 -5 -1 -10 4 -10 6 0 11 5 11 10 0 6 -2 10 -4 10 -3 0
-8 -4 -11 -10z"/>
<path d="M888 1664 c-16 -8 -28 -16 -28 -18 0 -9 40 7 51 20 14 17 11 17 -23
-2z"/>
<path d="M552 1659 c6 -4 31 -6 55 -5 24 1 46 -1 49 -6 3 -4 10 -8 17 -8 8 0
7 4 -1 12 -7 7 -40 13 -73 14 -32 0 -54 -3 -47 -7z"/>
<path d="M1981 1634 c-19 -13 -28 -24 -20 -24 8 0 28 11 44 25 38 31 21 31
-24 -1z"/>
<path d="M620 1634 c0 -3 9 -13 20 -22 22 -18 32 -86 16 -111 -6 -9 -5 -12 5
-9 27 9 11 121 -21 138 -11 6 -20 8 -20 4z"/>
<path d="M590 1626 c0 -2 8 -10 18 -17 15 -13 16 -12 3 4 -13 16 -21 21 -21
13z"/>
<path d="M685 1620 c-3 -5 1 -10 9 -10 9 0 16 -6 16 -12 0 -10 3 -9 9 1 7 11
13 10 35 -4 20 -14 30 -15 39 -6 6 6 19 11 29 11 10 0 18 4 18 9 0 5 8 12 18
14 13 4 11 5 -5 6 -13 0 -23 -4 -23 -11 0 -6 -3 -8 -7 -5 -3 4 -12 2 -19 -4
-9 -7 -24 -8 -41 -3 -16 4 -32 8 -38 9 -5 0 -15 4 -22 8 -6 4 -14 3 -18 -3z"/>
<path d="M452 1592 c-7 -5 -10 -16 -6 -25 3 -9 2 -17 -3 -17 -5 0 -10 -13 -10
-30 0 -16 4 -30 9 -30 4 0 8 -8 8 -18 0 -10 7 -27 15 -38 19 -25 19 -12 -2 34
-9 20 -15 41 -14 45 0 4 3 20 4 35 2 15 7 33 11 40 8 14 6 15 -12 4z"/>
<path d="M605 1510 c-3 -5 -1 -10 4 -10 6 0 11 5 11 10 0 6 -2 10 -4 10 -3 0
-8 -4 -11 -10z"/>
<path d="M1691 1482 c-36 -38 -114 -171 -92 -158 6 4 11 3 11 -3 0 -18 -17
-21 -30 -6 -17 21 -30 19 -30 -5 0 -11 6 -20 13 -20 33 -1 37 -15 16 -70 -23
-60 -36 -80 -52 -80 -5 0 -3 8 6 18 15 16 48 94 47 111 -1 13 -29 -45 -30 -61
0 -9 -11 -30 -25 -46 -13 -16 -22 -32 -18 -36 3 -3 -3 -6 -13 -6 -17 0 -19 6
-16 33 2 17 -6 61 -17 96 -12 35 -21 79 -21 97 0 29 -3 34 -24 34 -24 0 -28
-5 -40 -60 -6 -31 -67 -118 -81 -118 -16 1 -36 -45 -30 -68 3 -13 -2 -27 -12
-35 -15 -13 -15 -12 -3 11 l13 25 -27 -24 c-28 -27 -33 -36 -13 -26 6 4 3 -1
-7 -9 -25 -21 -50 -20 -67 1 -11 13 -11 17 -1 20 6 3 12 17 12 31 0 15 14 58
30 97 34 78 36 93 16 101 -38 14 -77 -36 -96 -122 -6 -27 -23 -69 -38 -94 -14
-25 -27 -49 -27 -55 0 -5 -13 -14 -28 -19 -35 -13 -55 9 -32 34 20 22 30 121
16 148 -6 12 -29 31 -50 42 -29 14 -38 24 -34 38 2 10 -2 24 -10 31 -12 9 -18
8 -31 -4 -19 -19 -21 -72 -4 -77 9 -3 9 -11 0 -34 -7 -16 -14 -50 -15 -76 -1
-25 -5 -44 -9 -41 -7 4 -9 -2 -12 -39 -1 -7 -7 -18 -14 -23 -7 -6 -14 -19 -16
-30 -5 -31 -33 -43 -53 -22 -12 12 -14 20 -7 25 16 10 24 87 13 127 -14 49
-46 68 -88 54 -17 -6 -36 -19 -41 -29 -17 -31 -11 -34 11 -6 11 14 26 26 32
26 7 0 -5 -16 -25 -35 -27 -25 -35 -40 -31 -57 3 -17 2 -19 -5 -9 -7 9 -8 -1
-5 -33 6 -52 -11 -64 -21 -15 -10 54 -7 80 19 133 50 103 87 315 53 303 -7 -2
-12 -12 -12 -21 1 -9 -4 -16 -12 -16 -8 0 -14 -9 -14 -20 0 -11 5 -20 11 -20
24 0 -22 -199 -48 -207 -11 -4 0 95 17 157 14 49 14 48 -24 47 l-34 -1 -11
-85 c-7 -48 -10 -147 -9 -221 3 -131 2 -137 -25 -187 -34 -66 -69 -87 -113
-68 -58 24 -97 102 -116 231 -24 165 38 347 108 320 18 -7 18 -78 0 -140 -13
-42 -13 -47 4 -56 65 -35 95 166 33 228 -19 19 -31 23 -54 18 -90 -18 -153
-121 -165 -269 -6 -72 8 -183 25 -200 5 -5 5 10 -1 34 -5 24 -8 91 -6 149 5
112 19 154 73 219 27 31 91 68 101 58 3 -3 -11 -13 -31 -22 -20 -10 -50 -38
-67 -63 -49 -71 -60 -121 -56 -259 2 -67 0 -124 -4 -128 -20 -21 57 -133 113
-165 29 -16 49 -20 73 -16 51 10 126 102 126 156 0 29 12 25 32 -11 12 -19 24
-29 35 -27 15 3 19 19 24 101 5 66 12 105 24 123 24 37 37 19 46 -61 10 -99
47 -128 103 -84 38 30 61 81 82 179 10 47 19 87 21 89 1 2 10 -2 18 -9 13 -11
15 -27 9 -97 -6 -72 -4 -86 11 -103 32 -36 92 -17 139 42 19 24 26 28 26 16 0
-25 45 -51 74 -44 14 3 38 18 55 32 l31 25 24 -28 c21 -24 32 -28 76 -28 45 0
55 4 79 30 22 25 69 55 86 55 3 0 5 -11 5 -24 0 -32 44 -66 84 -66 17 0 46 9
65 21 18 11 36 18 39 15 3 -4 2 -6 -3 -6 -4 0 -2 -7 5 -15 23 -28 46 -16 86
46 52 82 154 160 154 118 0 -6 -16 -47 -35 -92 -41 -95 -42 -103 -13 -113 17
-5 26 -1 37 17 31 48 114 129 132 129 24 0 24 -4 -6 -65 -30 -60 -32 -96 -7
-118 21 -19 64 -22 93 -7 16 9 19 7 19 -9 0 -47 55 -65 110 -36 27 14 30 14
30 0 0 -22 37 -55 63 -55 12 0 35 7 51 15 37 19 36 20 36 -13 0 -61 79 -95
135 -58 14 9 35 16 48 16 34 0 91 41 95 69 3 21 -1 19 -49 -18 -28 -23 -53
-40 -55 -39 -1 2 6 28 16 58 11 30 20 71 20 90 1 19 7 53 15 75 19 52 19 55
-4 55 -10 0 -31 -17 -47 -37 -15 -21 -33 -41 -39 -45 -23 -14 -60 -49 -45 -43
8 4 -1 -7 -20 -24 -43 -38 -113 -71 -151 -71 -36 0 -36 11 -3 47 49 52 76 92
69 103 -3 5 0 10 8 10 32 0 37 70 7 100 -24 24 -94 27 -144 6 -37 -15 -108
-82 -146 -139 -19 -27 -30 -35 -45 -31 -16 4 -17 3 -5 -5 13 -9 13 -11 -2 -11
-30 0 -28 16 7 85 38 73 42 101 21 130 -16 22 -66 23 -98 1 -26 -19 -19 -21
16 -5 27 13 80 4 71 -11 -4 -6 -14 -5 -26 3 -16 10 -26 8 -61 -12 l-41 -23 9
28 c12 44 9 95 -7 105 -26 16 -74 9 -112 -17 -21 -14 -35 -29 -32 -33 2 -5 -2
-14 -9 -21 -12 -9 -15 -5 -18 27 -3 32 -7 38 -28 40 -23 2 -23 2 -5 -7 18 -9
17 -10 -7 -7 -23 4 -28 0 -33 -27 -15 -71 -90 -146 -147 -146 -46 0 -50 57
-11 158 l16 43 79 -7 c74 -6 78 -5 78 13 0 18 -6 20 -70 19 -39 0 -70 1 -70 2
0 2 27 43 60 91 41 58 59 93 54 104 -10 28 -45 19 -83 -21z m49 9 c0 -5 -7
-15 -17 -22 -9 -8 -38 -43 -65 -78 -45 -60 -68 -75 -31 -21 64 96 113 149 113
121z m-1179 -181 c-6 -28 -12 -104 -12 -168 -2 -97 -3 -107 -9 -57 -8 78 2
254 16 277 13 21 15 -4 5 -52z m854 50 c-3 -5 -11 -10 -16 -10 -6 0 -7 5 -4
10 3 6 11 10 16 10 6 0 7 -4 4 -10z m-998 -73 c-3 -38 -12 -66 -23 -76 -16
-15 -16 -15 -9 4 4 11 10 48 13 82 3 39 8 60 14 57 6 -4 8 -31 5 -67z m1226
36 c-3 -10 -12 -27 -20 -38 -11 -17 -13 -17 -13 -2 0 9 5 17 12 17 6 0 8 3 5
7 -4 3 -2 12 4 20 15 18 20 16 12 -4z m-753 -24 c-7 -11 -14 -18 -17 -15 -3 3
0 12 7 21 18 21 23 19 10 -6z m280 -41 c-15 -29 -31 -68 -35 -85 -6 -32 -21
-50 -31 -40 -3 3 -1 13 5 24 6 10 15 37 21 59 10 41 44 94 60 94 4 0 -5 -24
-20 -52z m223 39 c-40 -63 -87 -127 -94 -127 -14 0 -10 17 5 23 8 3 29 31 47
61 19 30 38 56 42 56 4 0 4 -6 0 -13z m350 -4 c-7 -2 -19 -2 -25 0 -7 3 -2 5
12 5 14 0 19 -2 13 -5z m-313 -41 l0 -26 -16 22 c-8 12 -12 27 -9 32 10 17 25
1 25 -28z m585 8 c-4 -6 -15 -8 -26 -5 -12 4 -34 -2 -55 -14 -50 -30 -57 -26
-9 4 40 25 102 35 90 15z m-611 -57 c4 -27 9 -56 12 -65 8 -27 -11 -22 -48 12
-28 26 -31 33 -20 48 7 9 17 27 24 39 15 31 25 21 32 -34z m439 0 c4 -20 1
-33 -13 -45 -11 -9 -20 -20 -20 -25 -1 -18 -57 -76 -64 -65 -4 6 1 19 11 29
41 42 63 77 63 104 0 37 16 38 23 2z m-398 -8 c-2 -14 1 -25 6 -25 11 0 5 -63
-7 -67 -7 -2 -11 101 -5 115 5 10 8 -2 6 -23z m528 -74 c-53 -110 -76 -123
-27 -15 19 41 34 81 34 89 0 13 19 25 31 19 3 -1 -14 -44 -38 -93z m-200 20
c-31 -37 -89 -74 -134 -85 -27 -6 -70 16 -56 30 4 4 13 2 19 -4 16 -16 53 -15
87 2 34 18 86 76 97 108 7 20 8 21 12 4 2 -10 -9 -34 -25 -55z m-802 3 c-6
-22 -11 -59 -11 -84 -1 -36 -3 -42 -11 -27 -7 12 -8 37 -3 70 5 29 9 59 10 67
3 31 4 34 15 23 8 -8 8 -22 0 -49z m-241 -3 c12 -23 10 -72 -3 -64 -5 3 -7 14
-4 24 3 12 -2 23 -14 29 -10 6 -19 15 -19 20 0 18 29 11 40 -9z m1689 9 c-25
-4 -59 -15 -76 -23 -35 -18 -111 -95 -119 -119 -3 -10 -9 -18 -13 -18 -23 0
-16 18 26 67 57 67 121 102 183 101 l45 0 -46 -8z m-1074 -20 c10 -11 22 -20
26 -20 4 0 20 -5 36 -11 27 -10 27 -11 9 -25 -29 -21 -80 -18 -101 6 -10 11
-15 23 -11 27 3 4 13 -3 22 -15 10 -14 25 -22 42 -21 23 2 24 2 5 6 -32 6 -82
73 -55 73 5 0 17 -9 27 -20z m670 11 c3 -6 -4 -15 -15 -21 -19 -10 -20 -10 -8
9 15 24 15 24 23 12z m-435 -28 c0 -13 -3 -13 -15 -3 -8 7 -12 16 -9 21 8 13
24 1 24 -18z m866 -23 c1 -29 -7 -44 -43 -81 -53 -56 -136 -98 -161 -83 -21
14 -27 34 -10 34 7 1 27 24 43 52 37 64 107 120 144 116 22 -3 26 -8 27 -38z
m-306 26 c0 -14 -53 -116 -60 -116 -5 0 1 27 12 60 12 33 28 60 35 60 7 0 13
-2 13 -4z m-1074 -44 c-17 -16 -18 -16 -5 5 7 12 15 20 18 17 3 -2 -3 -12 -13
-22z m1629 18 c-3 -5 -11 -10 -16 -10 -6 0 -7 5 -4 10 3 6 11 10 16 10 6 0 7
-4 4 -10z m-1958 -52 c-3 -8 -6 -5 -6 6 -1 11 2 17 5 13 3 -3 4 -12 1 -19z
m1933 -19 c0 -11 -4 -18 -10 -14 -5 3 -7 12 -3 20 7 21 13 19 13 -6z m-2064
-71 c-1 -10 -5 -18 -11 -18 -5 1 -9 8 -9 15 1 8 -1 13 -5 11 -17 -11 -33 13
-27 40 l7 28 23 -29 c13 -16 23 -37 22 -47z m2014 68 c0 -2 -8 -10 -17 -17
-16 -13 -17 -12 -4 4 13 16 21 21 21 13z m23 -22 c15 -5 14 -27 -5 -101 -16
-64 -41 -57 -64 17 -10 33 -8 37 20 62 36 32 31 29 49 22z m-2283 -172 c43
-29 74 -23 118 23 35 38 41 38 16 -1 -19 -29 -63 -54 -94 -54 -50 0 -120 70
-120 120 0 18 5 14 23 -21 13 -24 39 -54 57 -67z m2227 19 c16 -9 16 -12 3
-21 -21 -14 -43 -12 -66 5 -15 12 -16 16 -5 24 7 5 10 14 7 20 -4 6 -4 21 0
33 6 20 8 19 25 -15 11 -20 27 -41 36 -46z"/>
<path d="M2405 1039 c-11 -11 -46 -38 -78 -60 -33 -21 -52 -39 -44 -39 15 0
124 78 147 105 19 23 -4 18 -25 -6z"/>
<path d="M2627 948 c-3 -18 -9 -42 -13 -52 -5 -13 -4 -17 3 -13 12 7 28 85 20
93 -2 3 -7 -10 -10 -28z"/>
<path d="M2540 830 c8 -5 20 -10 25 -10 6 0 3 5 -5 10 -8 5 -19 10 -25 10 -5
0 -3 -5 5 -10z"/>
<path d="M1206 1449 c-34 -26 -34 -57 -1 -65 27 -7 72 16 82 42 7 18 -14 44
-37 44 -9 0 -29 -9 -44 -21z m54 -3 c0 -5 -60 -36 -68 -36 -3 0 3 9 13 20 16
17 55 28 55 16z"/>
<path d="M496 1413 c9 -38 10 -38 31 -17 17 17 17 17 1 11 -12 -4 -18 -2 -18
8 0 7 -5 17 -10 20 -7 4 -8 -3 -4 -22z"/>
<path d="M1898 1383 c29 -2 74 -2 100 0 26 2 2 3 -53 3 -55 0 -76 -1 -47 -3z"/>
<path d="M622 1355 c0 -16 2 -22 5 -12 2 9 2 23 0 30 -3 6 -5 -1 -5 -18z"/>
<path d="M608 1297 c-3 -19 -2 -25 4 -19 6 6 8 18 6 28 -3 14 -5 12 -10 -9z"/>
<path d="M1168 1078 c5 -5 16 -8 23 -6 8 3 3 7 -10 11 -17 4 -21 3 -13 -5z"/>
<path d="M1485 1063 c-14 -13 -16 -31 -13 -89 3 -61 8 -79 33 -116 37 -52 93
-91 165 -114 30 -10 62 -24 71 -31 18 -15 55 -17 64 -4 3 6 27 13 53 16 26 4
59 10 75 15 15 5 27 5 27 0 0 -5 -8 -11 -17 -13 -10 -3 1 -5 25 -6 34 -1 42 2
42 17 0 10 17 26 43 40 24 13 65 42 92 65 39 35 46 47 41 65 -10 32 -32 27
-85 -17 -25 -21 -62 -46 -81 -56 -19 -10 -30 -20 -23 -22 16 -6 121 64 134 88
5 11 15 16 21 13 17 -11 -67 -82 -136 -115 -33 -16 -80 -31 -105 -34 -25 -4
-64 -12 -86 -19 -22 -7 -53 -9 -70 -6 l-30 6 29 27 c32 30 51 35 42 12 -3 -8
-1 -15 3 -15 5 0 16 -3 25 -6 28 -11 17 14 -15 37 l-32 22 -17 -21 c-15 -18
-22 -20 -52 -11 -87 23 -158 108 -158 187 0 40 -24 102 -40 102 -5 0 -16 -8
-25 -17z m22 -83 c-1 -88 -11 -105 -21 -36 -7 47 4 116 18 116 2 0 3 -36 3
-80z m50 -102 c37 -63 37 -75 -1 -39 -19 18 -34 42 -33 52 2 28 12 23 34 -13z
m126 -88 c54 -24 61 -33 17 -20 -40 12 -100 49 -100 62 0 6 8 4 18 -5 10 -9
39 -26 65 -37z"/>
<path d="M767 989 c7 -7 15 -10 18 -7 3 3 -2 9 -12 12 -14 6 -15 5 -6 -5z"/>
<path d="M2490 948 c-36 -33 -39 -38 -15 -25 33 18 75 52 75 61 0 13 -17 3
-60 -36z"/>
<path d="M1832 849 c2 -6 7 -10 11 -10 4 1 14 1 22 1 8 0 15 5 15 10 0 6 -12
10 -26 10 -14 0 -24 -5 -22 -11z"/>
<path d="M1898 853 c7 -3 16 -2 19 1 4 3 -2 6 -13 5 -11 0 -14 -3 -6 -6z"/>
<path d="M1800 840 c-13 -8 -12 -10 3 -10 9 0 17 5 17 10 0 12 -1 12 -20 0z"/>
<path d="M1930 831 c0 -11 -7 -27 -16 -35 -19 -20 -15 -20 24 0 37 18 40 29
12 44 -17 9 -20 8 -20 -9z"/>
<path d="M1864 824 c-16 -7 -5 -44 12 -44 8 0 14 10 14 25 0 25 -4 28 -26 19z"/>
<path d="M1978 683 c-35 -17 -37 -43 -4 -43 17 0 26 7 30 26 9 33 7 34 -26 17z"/>
<path d="M1920 678 c0 -7 -3 -24 -6 -38 -6 -23 -5 -23 14 5 19 30 20 45 1 45
-5 0 -9 -6 -9 -12z"/>
<path d="M1900 598 c0 -7 -3 -24 -6 -38 -4 -18 -3 -21 4 -10 17 27 24 60 13
60 -6 0 -11 -6 -11 -12z"/>
<path d="M1953 600 c-31 -13 -30 -40 2 -40 14 0 25 4 25 9 0 5 3 16 6 25 7 18
0 19 -33 6z"/>
<path d="M1866 465 c-9 -35 -16 -70 -16 -77 1 -22 21 20 25 51 2 16 8 38 14
49 13 25 14 42 2 42 -5 0 -16 -29 -25 -65z"/>
<path d="M1935 522 c-31 -11 -31 -42 0 -42 14 0 25 4 25 9 0 5 3 16 6 25 6 17
1 18 -31 8z"/>
<path d="M1940 455 c-7 -8 -20 -14 -29 -13 -10 2 -17 -5 -19 -19 -3 -18 1 -23
20 -23 18 0 26 8 34 35 12 39 12 41 -6 20z"/>
<path d="M1900 370 c-35 -8 -41 -50 -7 -50 19 0 26 6 30 28 6 32 8 30 -23 22z"/>
<path d="M1837 348 c-6 -21 -2 -36 7 -27 10 11 16 49 8 49 -5 0 -12 -10 -15
-22z"/>
<path d="M1811 246 c-6 -25 -11 -54 -11 -65 0 -23 31 -44 54 -35 15 6 19 15
31 67 5 19 5 20 -5 5 -6 -10 -20 -18 -30 -18 -11 0 -20 -7 -20 -15 0 -8 -4
-15 -10 -15 -11 0 -7 44 9 83 13 34 13 37 2 37 -5 0 -14 -20 -20 -44z"/>
<path d="M1873 283 c-32 -6 -31 -43 1 -43 17 0 25 7 28 25 3 14 2 24 -1 24 -3
-1 -16 -4 -28 -6z"/>
</g>
</defs>
</svg>
