<?xml version="1.0" encoding="utf-8"?>
<!-- Generator: Adobe Illustrator 23.0.3, SVG Export Plug-In . SVG Version: 6.00 Build 0)  -->
<svg version="1.1" id="Calque_1" focusable="false" xmlns="http://www.w3.org/2000/svg" xmlns:xlink="http://www.w3.org/1999/xlink"
	 x="0px" y="0px" viewBox="0 0 81 110" style="enable-background:new 0 0 81 110;" xml:space="preserve">
<style type="text/css">
	.st0{fill:#76007F;}
</style>
<path class="st0" d="M20.5,108.9C-6.9,81-6.8,35.8,20.5,8c1.2-1.2,3.1-1.4,4.5-0.5l13.7,8.7c1.5,0.9,2.1,2.8,1.4,4.5L33.3,38
	c-0.6,1.5-2.1,2.5-3.7,2.3l-11.8-1.2c-4.4,12.5-4.3,26.3,0,38.6l11.8-1.2c1.6-0.2,3.1,0.8,3.7,2.3l6.8,17.4c0.7,1.7,0,3.6-1.4,4.5
	L25,109.4C23.6,110.3,21.7,110.1,20.5,108.9z M52.1,20.5c2.5,4.3,2.5,9.7,0,14c-0.8,1.4-2.8,1.7-3.9,0.6l-1.3-1.2
	c-0.8-0.8-1-2.1-0.5-3.1c1-2,1-4.4,0-6.4c-0.5-1-0.3-2.3,0.5-3.1l1.3-1.2C49.4,18.8,51.3,19.1,52.1,20.5z M71.5,0.9
	c12.7,15.4,12.7,37.8,0,53.2c-0.9,1.1-2.6,1.2-3.7,0.2l-1.2-1.2c-1-0.9-1-2.5-0.2-3.5c10.5-12.8,10.5-31.4,0-44.1
	c-0.9-1-0.8-2.6,0.2-3.5l1.2-1.2C68.8-0.3,70.5-0.2,71.5,0.9L71.5,0.9z M61.8,10.6c7.6,10,7.6,23.9,0,33.8c-0.9,1.2-2.7,1.3-3.8,0.3
	l-1.2-1.2c-0.9-0.9-1.1-2.4-0.3-3.4c5.6-7.4,5.6-17.7,0-25.2c-0.8-1-0.7-2.5,0.3-3.4l1.2-1.2C59.1,9.2,60.9,9.4,61.8,10.6L61.8,10.6
	z"/>
</svg>
