<?xml version="1.0" encoding="utf-8"?>
<!-- Generator: Adobe Illustrator 23.0.3, SVG Export Plug-In . SVG Version: 6.00 Build 0)  -->
<svg version="1.1" id="Calque_1" focusable="false" xmlns="http://www.w3.org/2000/svg" xmlns:xlink="http://www.w3.org/1999/xlink"
	 x="0px" y="0px" viewBox="0 0 384 512" style="enable-background:new 0 0 384 512;" xml:space="preserve">
<style type="text/css">
	.st0{fill:#76007F;}
</style>
<path class="st0" d="M97.3,507C-32.5,377.1-32.3,166.7,97.3,37c5.7-5.7,14.5-6.6,21.3-2.4l64.8,40.5c7.1,4.4,9.9,13.2,6.8,21
	l-32.4,81c-2.8,7.1-10,11.5-17.7,10.7l-55.8-5.6c-21.1,58.3-20.6,122.5,0,179.5l55.8-5.6c7.6-0.8,14.8,3.6,17.7,10.7l32.4,81
	c3.1,7.7,0.2,16.5-6.8,21l-64.8,40.5C111.8,513.6,103,512.6,97.3,507z M247.1,95.5c11.8,20,11.8,45,0,65.1c-3.9,6.7-13.1,8-18.7,2.6
	l-6-5.7c-3.9-3.7-4.8-9.6-2.3-14.4c4.9-9.4,4.9-20.6,0-29.9c-2.5-4.8-1.6-10.7,2.3-14.4l6-5.7C234,87.5,243.2,88.8,247.1,95.5z
	 M338.9,4.3c60.1,71.6,60.1,175.9,0,247.4c-4.5,5.3-12.5,5.7-17.6,0.9l-5.8-5.6c-4.6-4.4-5-11.5-0.9-16.4
	c49.7-59.5,49.6-145.9,0-205.4c-4-4.9-3.6-12,0.9-16.4l5.8-5.6C326.4-1.5,334.4-1,338.9,4.3L338.9,4.3z M292.9,49.2
	c36,46.3,36.1,111.1,0,157.5c-4.4,5.6-12.7,6.3-17.9,1.3l-5.8-5.6c-4.4-4.2-5-11.1-1.3-15.9c26.5-34.6,26.5-82.6,0-117.1
	c-3.7-4.8-3.1-11.7,1.3-15.9l5.8-5.6C280.2,43,288.6,43.6,292.9,49.2L292.9,49.2z"/>
</svg>
