   
<svg version="1.1" class="test2" id="Layer_1" xmlns="http://www.w3.org/2000/svg" xmlns:xlink="http://www.w3.org/1999/xlink" x="0px" y="0px"
     viewBox="500 250 1280 1024" viewport= "0 0 1280 1024 "  >

<!-- <svg version="1.1" id="Layer_1" xmlns="http://www.w3.org/2000/svg" xmlns:xlink="http://www.w3.org/1999/xlink" x="0px" y="0px"
     viewBox="0 0 1280 1024" style="enable-background:new 0 0 1280 1024;" xml:space="preserve"> -->



<style type="text/css">
    .st0{fill:url(#SVGID_1_);}
    .st1{fill:url(#SVGID_2_);}
    .st2{fill:url(#SVGID_3_);}
    .st3{fill:url(#SVGID_4_);}
    .st4{fill:url(#SVGID_5_);}
    .st5{fill:url(#SVGID_6_);}
    .st6{fill:url(#SVGID_7_);}
    .st7{fill:url(#SVGID_8_);}
    .st8{fill:url(#SVGID_9_);}
</style>








<g class="homme">
    <!-- pied droite de l'ecran -->
    <radialGradient id="SVGID_1_" cx="2170.8914" cy="1253.4943" r="54.9106" gradientTransform="matrix(0.7448 2.180000e-02 -0.1014 0.5266 -825.3933 -74.1527)" gradientUnits="userSpaceOnUse">
        <stop  offset="5.618000e-03" style="stop-color:#FFFFFF"/>
        <stop  offset="0.2547" style="stop-color:#FBFEFF"/>
        <stop  offset="0.512" style="stop-color:#EEFAFF"/>
        <stop  offset="0.7721" style="stop-color:#DAF3FF"/>
        <stop  offset="0.978" style="stop-color:#C4ECFF"/>
    </radialGradient>


    <path class="st0" d="M672.7,616.7c-18.4-0.5-35.2,8.3-37.4,19.6c-2.2,11.4,11,21,29.4,21.6c18.4,0.5,35.2-8.2,37.4-19.6
        C704.3,626.9,691.1,617.2,672.7,616.7z"/>


    <!-- pied gauche -->

    <radialGradient id="SVGID_2_" cx="1616.6075" cy="47.8688" r="46.0315" gradientTransform="matrix(0.6975 0.2619 -0.2666 0.4653 -511.5981 182.679)" gradientUnits="userSpaceOnUse">
        <stop  offset="5.618000e-03" style="stop-color:#FFFFFF"/>
        <stop  offset="0.2547" style="stop-color:#FBFEFF"/>
        <stop  offset="0.512" style="stop-color:#EEFAFF"/>
        <stop  offset="0.7721" style="stop-color:#DAF3FF"/>
        <stop  offset="0.978" style="stop-color:#C4ECFF"/>
    </radialGradient>

    <path class="st1" d="M614.3,617.5c-14.5-5.4-30.1-3-35,5.4c-4.8,8.4,3,19.7,17.5,25.1c14.5,5.4,30.1,3,35-5.4
        C636.6,634.1,628.8,622.9,614.3,617.5z"/>


    <!-- bas du corps -->
    <radialGradient id="SVGID_3_" cx="2362.2505" cy="304.4993" r="116.426" gradientTransform="matrix(0.9274 0.1695 -0.1798 0.9837 -1510.1945 -162.4534)" gradientUnits="userSpaceOnUse">
        <stop  offset="5.618000e-03" style="stop-color:#FFFFFF"/>
        <stop  offset="0.2547" style="stop-color:#FBFEFF"/>
        <stop  offset="0.512" style="stop-color:#EEFAFF"/>
        <stop  offset="0.7721" style="stop-color:#DAF3FF"/>
        <stop  offset="0.978" style="stop-color:#C4ECFF"/>
    </radialGradient>

    <path class="st2" d="M651.3,473.8c-48.7-8.9-94.8,20.4-103.1,65.5c-8.2,45.1,24.5,88.8,73.2,97.7c48.7,8.9,94.8-20.4,103.1-65.5
        C732.8,526.4,700,482.7,651.3,473.8z"/>

        <!-- bras gauche -->
    
    <radialGradient id="SVGID_4_" cx="2384.0757" cy="315.7869" r="26.3364" gradientTransform="matrix(0.89 7.540000e-02 -8.440000e-02 0.9964 -1494.83 -72.3871)" gradientUnits="userSpaceOnUse">
        <stop  offset="5.618000e-03" style="stop-color:#FFFFFF"/>
        <stop  offset="0.2547" style="stop-color:#FBFEFF"/>
        <stop  offset="0.512" style="stop-color:#EEFAFF"/>
        <stop  offset="0.7721" style="stop-color:#DAF3FF"/>
        <stop  offset="0.978" style="stop-color:#C4ECFF"/>
    </radialGradient>


    <path class="st3" d="M604.5,407.1c-10.6-0.9-19.8,6.8-20.7,17.1c-0.9,10.3,7,19.4,17.5,20.3c10.6,0.9,19.8-6.8,20.7-17.1
        C623,417.1,615.1,408,604.5,407.1z"/>

        <!-- haut du corps -->
    
    <radialGradient id="SVGID_5_" cx="2435.4302" cy="349.659" r="87.3691" gradientTransform="matrix(0.89 7.540000e-02 -8.440000e-02 0.9964 -1494.83 -72.3871)" gradientUnits="userSpaceOnUse">
        <stop  offset="5.618000e-03" style="stop-color:#FFFFFF"/>
        <stop  offset="0.2547" style="stop-color:#FBFEFF"/>
        <stop  offset="0.512" style="stop-color:#EEFAFF"/>
        <stop  offset="0.7721" style="stop-color:#DAF3FF"/>
        <stop  offset="0.978" style="stop-color:#C4ECFF"/>
    </radialGradient>

    <path class="st4" d="M657.1,410.2c-35.1-3-65.8,22.4-68.7,56.7c-2.9,34.3,23.2,64.5,58.2,67.4c35.1,3,65.8-22.4,68.7-56.7
        C718.3,443.3,692.2,413.1,657.1,410.2z"/>


                <!-- bras droit -->

    <radialGradient id="SVGID_6_" cx="2510.3501" cy="343.4558" r="33.4642" gradientTransform="matrix(0.89 7.540000e-02 -8.440000e-02 0.9964 -1494.83 -72.3871)" gradientUnits="userSpaceOnUse">
        <stop  offset="5.618000e-03" style="stop-color:#FFFFFF"/>
        <stop  offset="0.2547" style="stop-color:#FBFEFF"/>
        <stop  offset="0.512" style="stop-color:#EEFAFF"/>
        <stop  offset="0.7721" style="stop-color:#DAF3FF"/>
        <stop  offset="0.978" style="stop-color:#C4ECFF"/>
    </radialGradient>
    <path class="st5" d="M715.7,440.2c-13.4-1.1-25.2,8.6-26.3,21.7c-1.1,13.1,8.9,24.7,22.3,25.8c13.4,1.1,25.2-8.6,26.3-21.7
        C739.1,452.9,729.2,441.3,715.7,440.2z"/>

        <!-- rond de la tête -->
    
    <radialGradient id="SVGID_7_" cx="2482.575" cy="276.063" r="46.2407" gradientTransform="matrix(0.8798 9.590000e-02 -6.460000e-02 1.0191 -1499.4944 -124.5874)" gradientUnits="userSpaceOnUse">
        <stop  offset="5.618000e-03" style="stop-color:#FFFFFF"/>
        <stop  offset="0.2547" style="stop-color:#FBFEFF"/>
        <stop  offset="0.512" style="stop-color:#EEFAFF"/>
        <stop  offset="0.7721" style="stop-color:#DAF3FF"/>
        <stop  offset="0.978" style="stop-color:#C4ECFF"/>
    </radialGradient> 
    <path class="st6" d="M673.6,368.2c-18.3-2-34.2,11.4-35.3,30c-1.2,18.5,12.7,35.2,31.1,37.2c18.3,2,34.2-11.4,35.3-30
        C705.9,386.8,692,370.2,673.6,368.2z"/>
    <g>
        <g>
                        <!-- carotte  -->
            <linearGradient id="SVGID_8_" gradientUnits="userSpaceOnUse" x1="-287.556" y1="2482.5017" x2="-302.9381" y2="2477.3809" gradientTransform="matrix(-0.4395 0.8982 0.8982 0.4395 -1713.1138 -432.8303)">
                <stop  offset="0" style="stop-color:#FFA200"/>
                <stop  offset="0.2747" style="stop-color:#FFC200"/>
                <stop  offset="0.6758" style="stop-color:#FFCC00"/>
                <stop  offset="1" style="stop-color:#FF9900"/>
            </linearGradient>

            <path class="st7" d="M628.1,382.6c0.1,0.2,1.4,1.2,2.1,1.7c7.5,5.5,15.1,11,22.6,16.5c1,0.7,2.3,0.8,3.3,0.7
                c1.5-0.3,2.6-1.1,3.3-2c0.7-1.1,1.3-2.2,1.7-3.4c0.4-1.2,0.3-2.5-0.4-3.8c-0.5-0.9-1.4-1.9-2.6-2.2c-9-2.6-18-5.1-26.9-7.7
                c-0.9-0.2-2-0.5-2.6-0.6C628.2,381.6,627.8,382.2,628.1,382.6z"/>
        </g>

                            <!-- bouche -->
        
        <linearGradient id="SVGID_9_" gradientUnits="userSpaceOnUse" x1="-1566.5353" y1="242.8332" x2="-1599.7375" y2="242.8332" gradientTransform="matrix(-0.9911 -0.1333 -0.1333 0.9911 -877.6514 -40.2966)">
            <stop  offset="0" style="stop-color:#ECF9FF"/>
            <stop  offset="0.4725" style="stop-color:#B3E6FF"/>
            <stop  offset="1" style="stop-color:#57AFDB"/>
        </linearGradient>

        <path class="st8" d="M676.5,406.1c-8.3,17.2-25.8,16.4-33.6,1.5l-0.1-0.3c13.8,7.7,28.7,7,33.4-1.4L676.5,406.1z"/>
        <path d="M665.4,389.8c-0.1,0.3,0.3,0.6,0.4,1c0,0.3-0.3,0.7-0.2,1c0.1,0.3,0.3,0.6,0.5,0.9c0.2,0.3,0.3,0.6,0.6,0.8
            c0.3,0.2,0.6,0.4,0.9,0.5c0.3,0.1,0.7,0,1,0.1c0.3,0.1,0.6-0.1,0.9-0.2c0.3,0,0.7,0.4,1.1,0.3c0.3-0.1,0.4-0.7,0.7-0.9
            c0.3-0.2,1,0.1,1.2-0.2c0.2-0.3,0.3-0.7,0.5-1c0.1-0.3,0-0.7,0.1-1c0.1-0.3-0.2-0.6-0.2-1c0-0.3,0.4-0.8,0.3-1.1
            c-0.1-0.3-0.4-0.6-0.6-0.8c-0.2-0.3-0.3-0.6-0.6-0.8c-0.3-0.2-0.6-0.3-0.9-0.4c-0.3-0.1-0.7,0-1-0.1c-0.3-0.1-0.6,0-0.9,0
            c-0.3,0-0.6,0-0.9,0.1c-0.3,0.1-0.7,0-1,0.2c-0.3,0.2-0.4,0.6-0.6,0.8c-0.2,0.3-0.7,0.4-0.8,0.7
            C665.5,389.1,665.5,389.5,665.4,389.8z"/>
        <path d="M656.3,383.5c0,0.3,0.3,0.5,0.3,0.8c0,0.3-0.3,0.6-0.2,0.8c0.1,0.3,0.2,0.5,0.4,0.7c0.2,0.2,0.3,0.5,0.5,0.7
            c0.2,0.2,0.5,0.3,0.7,0.4c0.2,0.1,0.6,0,0.9,0c0.3,0,0.5-0.1,0.8-0.1c0.3,0,0.6,0.3,0.9,0.2c0.3-0.1,0.3-0.6,0.5-0.7
            c0.2-0.2,0.8,0,1-0.2c0.2-0.2,0.3-0.6,0.4-0.8c0.1-0.2,0-0.6,0.1-0.9c0-0.3-0.2-0.5-0.2-0.8c0-0.3,0.3-0.6,0.2-0.9
            c-0.1-0.3-0.3-0.5-0.5-0.7c-0.2-0.2-0.3-0.5-0.5-0.7c-0.2-0.2-0.5-0.2-0.8-0.3c-0.2-0.1-0.5,0-0.8-0.1c-0.3,0-0.5,0-0.8,0
            c-0.3,0-0.5,0-0.8,0.1c-0.3,0.1-0.6,0-0.8,0.2c-0.2,0.2-0.3,0.5-0.5,0.7c-0.2,0.2-0.5,0.3-0.7,0.6
            C656.4,382.9,656.4,383.2,656.3,383.5z"/>
    </g>
</g>
</svg>